<svg id="_1" data-name="1" xmlns="http://www.w3.org/2000/svg" viewBox="0 0 207.92 162.37"><defs><style>.cls-1{fill:#2f5fac;}.cls-2{fill:#2287aa;}.cls-3{fill:#109dce;}.cls-4{fill:#26a9e1;}.cls-5{fill:#f7941d;}.cls-6{fill:#808285;}.cls-7{fill:#3c2415;}.cls-8{fill:#0067a6;}.cls-9{fill:#005d8d;}.cls-10{fill:#164059;}.cls-11{fill:#fff;}</style></defs><path class="cls-1" d="M144.16,35S173.55,6.14,188,9.6s8.07,55.9-1.72,64" transform="translate(0 -8.65)"/><path class="cls-2" d="M154.53,40.72S175.85,19.4,181,23.43s1.15,34.57-2.88,38" transform="translate(0 -8.65)"/><path class="cls-3" d="M104.15,164.91V171h0c24.79.1,47.26-5.94,63.54-17.79,15.33-5.78,18.12,7.33,18.12,7.33,4.53-4,2.83-15.87,2.83-15.87,4.45,10.81,19.27,12.47,19.27,12.47-14.17-11.34-10.2-31.17-10.2-31.17,7.36,6.71,10.2,4.53,10.2,4.53-7.94-6.35-12.16-18.51-14-25.23.1-1.56.16-3.14.16-4.76a74.26,74.26,0,0,0-16.73-47.24,82.84,82.84,0,0,0-23.9-19.92q-3.85-2.16-8-4a98.14,98.14,0,0,0-22.09-6.68A15,15,0,0,0,128,8.65c-.72.5-1.4,1-2.08,1.43l-.62.41-1.42.92-.61.39-1.57.95-.3.18-1.76,1-.47.25-1.24.65-.52.26-1.23.59-.34.16-1.48.64-.32.13c-.36.15-.73.29-1.08.42l-.41.16-1,.33-.32.11L110,18l-.12,0-1,.25-.29.06c-.27.06-.54.12-.8.16l-.23.05c-.66.11-1.27.19-1.81.23h-.16l-.65,0h-.83V133.11q1.71.06,3.42.18h0l1.36.12.42,0,1.16.12.59.07,1,.13.68.09.94.14.72.11.85.15.76.14.77.15.76.16.71.17.74.18.64.17.72.21.57.18.69.23.5.18c.22.08.43.17.63.26l.44.18c.21.09.39.19.58.28l.37.19.51.31.29.18.16.12.3.24c.06.06.14.11.2.16a4,4,0,0,1,.49.54c4.17,5.66-2.61,17.5-20.11,18.36l-1.94,0M135.3,96a11.91,11.91,0,1,1-10.25,10.25A11.91,11.91,0,0,1,135.3,96Z" transform="translate(0 -8.65)"/><path class="cls-1" d="M65.88,35S36.5,6.14,22.09,9.6s-8.07,55.9,1.73,64" transform="translate(0 -8.65)"/><path class="cls-2" d="M55.51,40.72S34.19,19.4,29,23.43s-1.15,34.57,2.89,38" transform="translate(0 -8.65)"/><path class="cls-4" d="M103.73,156.88l-1.17,0c-16.07-.59-26.61-11.51-19.91-19.31a11.73,11.73,0,0,1,.85-.89c3-2.82,11.56-3.84,19.65-3.55h1V18.82a8.09,8.09,0,0,1-3.25-.54,8.82,8.82,0,0,1,3.25-2.3V13c-18.33,3.8-28.52,12.12-28.52,12.12h0a95,95,0,0,0-14.48,5.48c-2.67,1.27-5.26,2.66-7.75,4.16A82.31,82.31,0,0,0,31.28,54a76.74,76.74,0,0,0-4.51,6.29,74,74,0,0,0-11.66,40.26s-3.77,20.92-15.11,30c0,0,2.84,2.18,10.2-4.53,0,0,4,19.83-10.2,31.17,0,0,14.82-1.66,19.27-12.47,0,0-1.7,11.9,2.84,15.87,0,0,3.19-15.07,21.62-5.78C59.66,165.5,81,171,104.41,171h-.26v-6.1m-33.62-69a11.9,11.9,0,1,1-11.9,11.9A11.9,11.9,0,0,1,70.53,95.94Z" transform="translate(0 -8.65)"/><path class="cls-1" d="M77.12,141.08C57.29,157.74,27,95.7,36.5,83.16s54.88,7.78,58.77,21.61S87.93,132,77.12,141.08Z" transform="translate(0 -8.65)"/><path class="cls-1" d="M130.13,141.08C150,157.74,180.27,95.7,170.76,83.16S115.87,90.94,112,104.77,119.33,132,130.13,141.08Z" transform="translate(0 -8.65)"/><path class="cls-5" d="M110.75,12.52l-.5.22Z" transform="translate(0 -8.65)"/><path class="cls-5" d="M112.29,11.89l-.5.2Z" transform="translate(0 -8.65)"/><path class="cls-5" d="M112.16,17.19l.41-.16Z" transform="translate(0 -8.65)"/><path class="cls-5" d="M105.58,15l-.58.31Z" transform="translate(0 -8.65)"/><path class="cls-5" d="M110.86,17.63l.32-.11Z" transform="translate(0 -8.65)"/><path class="cls-5" d="M115.45,15.84l.34-.16Z" transform="translate(0 -8.65)"/><path class="cls-5" d="M107.78,13.85l-.64.31Z" transform="translate(0 -8.65)"/><path class="cls-5" d="M104.64,15.47l-.69.4Z" transform="translate(0 -8.65)"/><path class="cls-5" d="M113.65,16.61l.32-.13Z" transform="translate(0 -8.65)"/><path class="cls-5" d="M107.22,18.54l.23-.05Z" transform="translate(0 -8.65)"/><path class="cls-5" d="M111.51,12.21l-.41.17Z" transform="translate(0 -8.65)"/><path class="cls-5" d="M105.25,18.78h0Z" transform="translate(0 -8.65)"/><path class="cls-5" d="M109.54,18l.12,0Z" transform="translate(0 -8.65)"/><path class="cls-5" d="M108.25,18.33l.29-.06Z" transform="translate(0 -8.65)"/><path class="cls-5" d="M121,12.93l.3-.18Z" transform="translate(0 -8.65)"/><path class="cls-5" d="M117,15.09l.52-.26Z" transform="translate(0 -8.65)"/><path class="cls-5" d="M108.47,12.1c1.56-.25,3.17-.46,4.84-.61C111.64,11.64,110,11.86,108.47,12.1Z" transform="translate(0 -8.65)"/><path class="cls-5" d="M122.88,11.8l.61-.39Z" transform="translate(0 -8.65)"/><path class="cls-5" d="M124.91,10.49l.62-.41Z" transform="translate(0 -8.65)"/><path class="cls-5" d="M112.81,11.68l-.36.14Z" transform="translate(0 -8.65)"/><path class="cls-5" d="M103.78,13c1.38-.29,2.81-.56,4.28-.79C106.59,12.4,105.16,12.67,103.78,13Z" transform="translate(0 -8.65)"/><path class="cls-5" d="M104.6,18.81h0Z" transform="translate(0 -8.65)"/><path class="cls-5" d="M108.73,13.41l-.51.24Z" transform="translate(0 -8.65)"/><path class="cls-5" d="M106.67,14.4l-.71.36Z" transform="translate(0 -8.65)"/><path class="cls-5" d="M113.15,11.55l-.18.07Z" transform="translate(0 -8.65)"/><path class="cls-5" d="M109.72,13l-.58.26Z" transform="translate(0 -8.65)"/><path class="cls-5" d="M113.31,11.49l-.07,0Z" transform="translate(0 -8.65)"/><path class="cls-5" d="M118.78,14.18l.47-.25Z" transform="translate(0 -8.65)"/><path class="cls-6" d="M104.15,16l.18-.11.69-.4.36-.2L106,15l.38-.2.71-.36.47-.24.64-.31.44-.2.51-.24.41-.18.58-.26.53-.23.5-.22.35-.14.41-.17.28-.12.5-.2.16-.07.36-.14.16-.06.18-.07.09,0,.07,0c-1.67.15-3.28.36-4.84.61l-.41.07c-1.47.23-2.9.5-4.28.79h0v3Z" transform="translate(0 -8.65)"/><path class="cls-7" d="M115,134.25l.76.14Z" transform="translate(0 -8.65)"/><path class="cls-7" d="M116.48,134.54l.76.16Z" transform="translate(0 -8.65)"/><path class="cls-7" d="M113.38,134l.72.11Z" transform="translate(0 -8.65)"/><path class="cls-7" d="M118,134.87l.74.18Z" transform="translate(0 -8.65)"/><path class="cls-7" d="M108.56,133.41l.42,0Z" transform="translate(0 -8.65)"/><path class="cls-7" d="M110.14,133.56l.59.07Z" transform="translate(0 -8.65)"/><path class="cls-7" d="M122.88,136.46l.58.28C123.27,136.65,123.09,136.55,122.88,136.46Z" transform="translate(0 -8.65)"/><path class="cls-7" d="M107.19,133.29h0Z" transform="translate(0 -8.65)"/><path class="cls-7" d="M111.76,133.76l.68.09Z" transform="translate(0 -8.65)"/><path class="cls-7" d="M123.83,136.93l.51.31Z" transform="translate(0 -8.65)"/><path class="cls-7" d="M119.33,135.22l.72.21Z" transform="translate(0 -8.65)"/><path class="cls-7" d="M121.81,136c.22.08.43.17.63.26C122.24,136.19,122,136.1,121.81,136Z" transform="translate(0 -8.65)"/><path class="cls-7" d="M120.62,135.61l.69.23Z" transform="translate(0 -8.65)"/><path class="cls-7" d="M125.29,137.94a4,4,0,0,1,.49.54A4,4,0,0,0,125.29,137.94Z" transform="translate(0 -8.65)"/><path class="cls-7" d="M125.09,137.78l-.3-.24-.16-.12C124.8,137.54,125,137.66,125.09,137.78Z" transform="translate(0 -8.65)"/><path class="cls-8" d="M104.15,156.88V133.11c-8.67-.29-17.22.73-20.23,3.55a11.73,11.73,0,0,0-.85.89c-6.7,7.8,3.84,18.72,19.91,19.31Z" transform="translate(0 -8.65)"/><path class="cls-9" d="M104.15,133.14v23.77h1.1l.42,0c17.65-.61,24.7-12.71,20.53-18.37a4.79,4.79,0,0,0-.49-.54c-.06-.05-.14-.1-.2-.16s-.29-.24-.46-.36l-.29-.18c-.17-.1-.33-.21-.52-.31l-.36-.19-.58-.28-.44-.18c-.21-.09-.41-.18-.63-.26l-.51-.18-.68-.24-.57-.17-.72-.21-.64-.17-.74-.18-.71-.17-.76-.16-.77-.16-.76-.13c-.28-.06-.56-.1-.85-.15l-.72-.11-.94-.15-.68-.08-1-.13-.59-.07-1.16-.12-.43,0-1.35-.11h0c-1.14-.08-2.28-.15-3.42-.18h0Z" transform="translate(0 -8.65)"/><path class="cls-10" d="M58.63,107.84a11.91,11.91,0,1,0,11.9-11.9A11.9,11.9,0,0,0,58.63,107.84Zm7.76-9.14a3.94,3.94,0,1,1-3.94,3.93A3.93,3.93,0,0,1,66.39,98.7Z" transform="translate(0 -8.65)"/><path class="cls-10" d="M136.85,95.94a11.9,11.9,0,1,0,11.91,11.9A11.9,11.9,0,0,0,136.85,95.94Zm-4.14,10.63a3.94,3.94,0,1,1,3.93-3.94A3.94,3.94,0,0,1,132.71,106.57Z" transform="translate(0 -8.65)"/><circle class="cls-11" cx="66.39" cy="93.98" r="3.93"/><circle class="cls-11" cx="132.71" cy="93.98" r="3.93"/></svg>