<?xml version='1.0' encoding='iso-8859-1'?>
<svg version="1.1" xmlns="http://www.w3.org/2000/svg" viewBox="0 0 30.06 30.06" xmlns:xlink="http://www.w3.org/1999/xlink" enable-background="new 0 0 30.06 30.06">
  <g>
    <g>
      <path d="m21.764,11.748c-0.977,0.977-0.977,2.559 0,3.535 0.977,0.977 2.559,0.977 3.535,0 0.977-0.977 0.977-2.559 0-3.535-0.976-0.976-2.558-0.976-3.535,0zm6.363-2.828c-1.023-1.025-2.308-1.615-3.639-1.812l-6.665-6.713c-0.026-0.033-0.038-0.073-0.069-0.104-0.199-0.198-0.461-0.292-0.723-0.288-0.262-0.004-0.523,0.09-0.723,0.29-0.023,0.023-0.029,0.054-0.049,0.079l-7.251,7.258-7.27-7.321-.015-.016c-0.391-0.391-1.023-0.391-1.414,0-0.217,0.216-0.301,0.506-0.277,0.788v19.837c-0.023,0.283 0.06,0.572 0.277,0.789l8.002,8.06c0.391,0.391 1.023,0.391 1.414,0 0.025-0.026 0.033-0.061 0.056-0.089l7.243-7.25 7.287,7.339c0.391,0.391 1.023,0.391 1.414,0 0.104-0.104 0.176-0.227 0.225-0.356 0.052-0.121 0.082-0.254 0.082-0.395v-8.808l1.742-1.742 .354-.354c2.538-2.539 2.538-6.654-0.001-9.192zm-20.095,17.727l-6-6.043v-17.162l6,6.043v17.162zm8-6.047l-6,6.006v-17.179l6-6.006v17.179zm2-10.526v-6.632l3.801,3.828c-1.059,0.286-2.066,0.817-2.896,1.649-0.368,0.368-0.671,0.774-0.929,1.2 0.009-0.014 0.014-0.03 0.024-0.045zm6,12.065v4.508l-6-6.043v-3.646c-0.009-0.015-0.015-0.031-0.024-0.046 0.257,0.426 0.56,0.833 0.929,1.2l.354,.354 3.535,3.535c0.391,0.391 1.023,0.391 1.414,0-0.062,0.062-0.137,0.096-0.208,0.138zm2.681-5.442c-0.008,0.008-0.017,0.013-0.023,0.021l.002,.002-3.16,3.16-3.204-3.204 .003-.003c-1.735-1.759-1.73-4.59 0.02-6.339 1.757-1.758 4.606-1.758 6.363,0 1.757,1.757 1.757,4.606-0.001,6.363z"/>
    </g>
  </g>
</svg>
